<svg xmlns="http://www.w3.org/2000/svg" width="100" height="100" viewBox="0 0 100 100" fill="none">
  <path d="M0.366051 15.5543C-0.270782 16.4568 -0.0554116 17.7046 0.847094 18.3415L15.5543 28.7193C16.4568 29.3561 17.7047 29.1407 18.3415 28.2382C18.9783 27.3357 18.763 26.0878 17.8605 25.451L4.7874 16.2263L14.0121 3.15325C14.6489 2.25074 14.4336 1.00286 13.5311 0.366025C12.6286 -0.270808 11.3807 -0.055438 10.7438 0.847069L0.366051 15.5543ZM85.0002 99.7073L99.2948 81.5691L76.4393 78.2587L85.0002 99.7073ZM5.21376 18.2316C6.30784 18.0797 7.07169 17.0697 6.91985 15.9756C6.76801 14.8815 5.758 14.1177 4.66391 14.2695L4.93884 16.2506L5.21376 18.2316ZM10.7005 13.6215C9.59923 13.7062 8.77508 14.6676 8.85976 15.7689C8.94444 16.8702 9.90589 17.6944 11.0072 17.6097L10.8539 15.6156L10.7005 13.6215ZM16.8424 17.3333C17.9468 17.3133 18.8259 16.4019 18.8059 15.2975C18.786 14.1931 17.8745 13.314 16.7701 13.3339L16.8063 15.3336L16.8424 17.3333ZM22.8534 13.403C21.7497 13.3577 20.8183 14.2157 20.773 15.3193C20.7277 16.4229 21.5857 17.3543 22.6893 17.3996L22.7713 15.4013L22.8534 13.403ZM28.5039 17.8156C29.6027 17.9285 30.585 17.1293 30.6979 16.0305C30.8108 14.9317 30.0115 13.9494 28.9127 13.8365L28.7083 15.8261L28.5039 17.8156ZM34.9504 14.655C33.8613 14.4705 32.8289 15.2037 32.6443 16.2927C32.4597 17.3817 33.1929 18.4142 34.2819 18.5988L34.6162 16.6269L34.9504 14.655ZM39.9758 19.7699C41.049 20.0312 42.1309 19.373 42.3922 18.2998C42.6535 17.2266 41.9953 16.1447 40.9221 15.8834L40.449 17.8266L39.9758 19.7699ZM46.8028 17.5562C45.7532 17.2123 44.6234 17.7844 44.2795 18.834C43.9356 19.8837 44.5077 21.0134 45.5574 21.3573L46.1801 19.4568L46.8028 17.5562ZM50.9734 23.388C51.9898 23.8205 53.1643 23.347 53.5967 22.3306C54.0291 21.3142 53.5557 20.1397 52.5393 19.7073L51.7564 21.5477L50.9734 23.388ZM58.0764 22.3725C57.1051 21.8464 55.8913 22.2074 55.3653 23.1786C54.8393 24.1499 55.2002 25.3637 56.1715 25.8897L57.1239 24.1311L58.0764 22.3725ZM61.0811 28.8789C61.9935 29.5015 63.2379 29.2666 63.8605 28.3542C64.4831 27.4418 64.2481 26.1975 63.3358 25.5749L62.2084 27.2269L61.0811 28.8789ZM68.2421 29.3293C67.4034 28.6106 66.1408 28.7078 65.422 29.5465C64.7032 30.3852 64.8004 31.6478 65.6391 32.3666L66.9406 30.848L68.2421 29.3293ZM69.7625 36.3284C70.5137 37.1381 71.7792 37.1855 72.5889 36.4342C73.3986 35.683 73.446 34.4175 72.6948 33.6078L71.2286 34.9681L69.7625 36.3284ZM76.6343 38.3809C75.9816 37.4898 74.7301 37.2965 73.839 37.9492C72.9479 38.6018 72.7546 39.8533 73.4072 40.7445L75.0208 39.5627L76.6343 38.3809ZM76.5222 45.5489C77.0701 46.5079 78.2918 46.8413 79.2509 46.2933C80.21 45.7454 80.5433 44.5238 79.9954 43.5647L78.2588 44.5568L76.5222 45.5489ZM82.7563 49.0685C82.314 48.0564 81.1348 47.5945 80.1227 48.0369C79.1106 48.4793 78.6488 49.6584 79.0912 50.6705L80.9238 49.8695L82.7563 49.0685ZM81.1301 56.0566C81.4705 57.1074 82.5983 57.6833 83.6492 57.3429C84.7 57.0025 85.2758 55.8747 84.9354 54.8239L83.0328 55.4402L81.1301 56.0566ZM86.5614 60.7491C86.3161 59.6722 85.2442 58.9979 84.1672 59.2432C83.0902 59.4885 82.416 60.5604 82.6612 61.6374L84.6113 61.1933L86.5614 60.7491ZM83.72 67.3487C83.8788 68.4417 84.8937 69.1991 85.9868 69.0403C87.0799 68.8814 87.8373 67.8665 87.6784 66.7734L85.6992 67.061L83.72 67.3487ZM88.3386 72.8381C88.2569 71.7366 87.2978 70.9098 86.1962 70.9914C85.0947 71.073 84.2679 72.0322 84.3495 73.1337L86.344 72.9859L88.3386 72.8381ZM84.5962 78.9602C84.6095 80.0647 85.5156 80.9493 86.6201 80.9361C87.7246 80.9229 88.6092 80.0168 88.5959 78.9123L86.5961 78.9363L84.5962 78.9602ZM88.5 84.9633C88.547 83.8598 87.6905 82.927 86.587 82.88C85.4834 82.8329 84.5507 83.6894 84.5036 84.793L86.5018 84.8782L88.5 84.9633ZM84.1114 90.6202C84.0112 91.7202 84.8217 92.6931 85.9217 92.7933C87.0217 92.8935 87.9947 92.083 88.0949 90.983L86.1032 90.8016L84.1114 90.6202ZM87.4174 96.9704C87.5646 95.8756 86.7965 94.8688 85.7018 94.7216C84.6071 94.5743 83.6003 95.3424 83.4531 96.4371L85.4352 96.7037L87.4174 96.9704ZM2.00018 16.7073L2.34033 18.6782C3.2736 18.5171 4.23226 18.3678 5.21376 18.2316L4.93884 16.2506L4.66391 14.2695C3.63941 14.4117 2.63725 14.5678 1.66003 14.7365L2.00018 16.7073ZM10.8539 15.6156L11.0072 17.6097C12.9011 17.4641 14.8511 17.3693 16.8424 17.3333L16.8063 15.3336L16.7701 13.3339C14.6993 13.3714 12.6712 13.4699 10.7005 13.6215L10.8539 15.6156ZM22.7713 15.4013L22.6893 17.3996C24.6089 17.4784 26.551 17.615 28.5039 17.8156L28.7083 15.8261L28.9127 13.8365C26.8754 13.6272 24.8515 13.485 22.8534 13.403L22.7713 15.4013ZM34.6162 16.6269L34.2819 18.5988C36.1852 18.9214 38.0867 19.3099 39.9758 19.7699L40.449 17.8266L40.9221 15.8834C38.9367 15.4 36.9424 14.9927 34.9504 14.655L34.6162 16.6269ZM46.1801 19.4568L45.5574 21.3573C47.3893 21.9576 49.198 22.6327 50.9734 23.388L51.7564 21.5477L52.5393 19.7073C50.6537 18.9051 48.7378 18.1902 46.8028 17.5562L46.1801 19.4568ZM57.1239 24.1311L56.1715 25.8897C57.8539 26.8009 59.4936 27.7956 61.0811 28.8789L62.2084 27.2269L63.3358 25.5749C61.6306 24.4113 59.8737 23.3459 58.0764 22.3725L57.1239 24.1311ZM66.9406 30.848L65.6391 32.3666C67.074 33.5962 68.4513 34.9152 69.7625 36.3284L71.2286 34.9681L72.6948 33.6078C71.2774 32.0801 69.7898 30.6558 68.2421 29.3293L66.9406 30.848ZM75.0208 39.5627L73.4072 40.7445C74.5135 42.2548 75.5543 43.8547 76.5222 45.5489L78.2588 44.5568L79.9954 43.5647C78.9527 41.7395 77.8296 40.0129 76.6343 38.3809L75.0208 39.5627ZM80.9238 49.8695L79.0912 50.6705C79.8391 52.3816 80.5208 54.1757 81.1301 56.0566L83.0328 55.4402L84.9354 54.8239C84.2863 52.8201 83.558 50.9026 82.7563 49.0685L80.9238 49.8695ZM84.6113 61.1933L82.6612 61.6374C83.0781 63.4678 83.4326 65.3707 83.72 67.3487L85.6992 67.061L87.6784 66.7734C87.3762 64.6936 87.0025 62.6862 86.5614 60.7491L84.6113 61.1933ZM86.344 72.9859L84.3495 73.1337C84.4889 75.0144 84.5722 76.9559 84.5962 78.9602L86.5961 78.9363L88.5959 78.9123C88.571 76.8282 88.4843 74.8039 88.3386 72.8381L86.344 72.9859ZM86.5018 84.8782L84.5036 84.793C84.423 86.6841 84.293 88.6261 84.1114 90.6202L86.1032 90.8016L88.0949 90.983C88.2822 88.927 88.4166 86.9208 88.5 84.9633L86.5018 84.8782Z" fill="#1557FF"/>
</svg>