<svg xmlns="http://www.w3.org/2000/svg" width="236" height="93" viewBox="0 0 236 93" fill="none">
<path d="M194.095 0C217.238 0.0001582 236 18.7617 236 41.9053V51.0127C236 74.1564 217.238 92.9188 194.095 92.9189H54.3623C53.1584 92.9189 51.9663 92.8651 50.7881 92.7656H0L19.8418 74.7734C15.1851 68.0209 12.4561 59.8357 12.4561 51.0127V41.9053C12.4562 18.7616 31.2186 0 54.3623 0H194.095Z" fill="#CF0018"/>
<mask id="mask0_974_12914" style="mask-type:alpha" maskUnits="userSpaceOnUse" x="0" y="0" width="236" height="93">
<path d="M194.095 0C217.238 0.00016029 236 18.7617 236 41.9053V51.0127C236 74.1564 217.238 92.9188 194.095 92.9189H54.3623C53.1584 92.9189 51.9663 92.8651 50.7881 92.7656H0L19.8418 74.7734C15.1851 68.0209 12.4561 59.8357 12.4561 51.0127V41.9053C12.4562 18.7616 31.2186 0 54.3623 0H194.095Z" fill="#CF0018"/>
</mask>
<g mask="url(#mask0_974_12914)">
<path d="M234.478 16.0772C234.028 16.5962 233.388 17.1152 232.557 17.6343C231.727 18.1187 230.896 18.5685 230.066 18.9838C229.235 19.399 228.509 19.7623 227.886 20.0737C227.263 20.3505 226.952 20.5408 226.952 20.6446C226.952 20.7484 227.021 21.0599 227.159 21.5789C227.298 22.0979 227.453 22.7208 227.626 23.4474C227.834 24.1394 228.042 24.8661 228.249 25.6273C228.457 26.3885 228.63 27.0633 228.768 27.6515C228.837 27.9975 228.924 28.4474 229.028 29.001C229.132 29.5546 229.218 30.1082 229.287 30.6619C229.391 31.2155 229.478 31.7172 229.547 32.1671C229.616 32.5823 229.651 32.8072 229.651 32.8418C229.651 33.3608 229.564 33.8972 229.391 34.4508C229.218 35.0044 228.941 35.2812 228.561 35.2812C228.353 35.2812 228.163 35.1947 227.99 35.0217C227.817 34.8487 227.661 34.6584 227.523 34.4508C227.384 34.2086 227.28 33.9837 227.211 33.776C227.142 33.5684 227.107 33.4127 227.107 33.3089C227.107 33.2397 227.107 33.1359 227.107 32.9975C227.142 32.8591 227.159 32.7034 227.159 32.5304C227.159 31.8729 227.055 30.9214 226.848 29.6757C226.779 29.2951 226.64 28.7069 226.433 27.911C226.225 27.1152 226.017 26.302 225.81 25.4716C225.568 24.5027 225.291 23.4474 224.979 22.3055C224.841 21.8211 224.754 21.5789 224.72 21.5789C224.478 21.5789 224.062 21.7346 223.474 22.046C222.921 22.3228 222.28 22.6861 221.554 23.136C220.827 23.5512 220.066 24.0183 219.27 24.5373C218.474 25.0218 217.73 25.4889 217.038 25.9387C216.346 26.3539 215.758 26.7173 215.274 27.0287C214.755 27.3055 214.443 27.4439 214.339 27.4439C213.889 27.4439 213.526 27.2882 213.249 26.9768C212.973 26.6654 212.834 26.3193 212.834 25.9387C212.834 25.7311 213.128 25.437 213.716 25.0564C214.27 24.6411 214.979 24.1913 215.844 23.7069C216.675 23.2225 217.592 22.7207 218.595 22.2017C219.564 21.6827 220.464 21.2156 221.294 20.8003C222.159 20.3851 222.869 20.0391 223.422 19.7623C224.011 19.4855 224.305 19.3471 224.305 19.3471C223.993 17.7554 223.734 16.3367 223.526 15.091C223.353 14.0184 223.18 13.0322 223.007 12.1326C222.869 11.2329 222.799 10.7485 222.799 10.6793C222.799 10.2295 222.886 9.90076 223.059 9.69315C223.267 9.45094 223.491 9.32983 223.734 9.32983C224.114 9.32983 224.357 9.58934 224.46 10.1084C224.841 11.9769 225.187 13.6378 225.498 15.091C225.844 16.5443 226.173 17.7208 226.485 18.6204C226.796 18.5512 227.332 18.3609 228.094 18.0495C228.855 17.7035 229.651 17.3402 230.481 16.9595C231.311 16.5789 232.055 16.2502 232.713 15.9734C233.405 15.662 233.803 15.5063 233.907 15.5063C234.114 15.5063 234.235 15.5755 234.27 15.7139C234.339 15.8523 234.408 15.9734 234.478 16.0772Z" fill="#2C0606"/>
<path d="M216.283 32.6858C216.283 33.274 216.076 33.793 215.66 34.2429C215.28 34.6581 214.778 35.0214 214.155 35.3328C213.567 35.6097 212.91 35.8346 212.183 36.0076C211.456 36.1806 210.764 36.319 210.107 36.4228C209.449 36.492 208.861 36.5439 208.342 36.5785C207.858 36.5785 207.546 36.5785 207.408 36.5785C206.647 36.5785 206.058 36.4574 205.643 36.2152C205.228 35.973 205.02 35.5404 205.02 34.9176C205.02 34.71 205.038 34.537 205.072 34.3986C205.107 34.2256 205.245 34.1391 205.487 34.1391C205.591 34.1391 205.764 34.1737 206.006 34.2429C206.249 34.2775 206.439 34.2948 206.577 34.2948C206.716 34.2948 207.148 34.2775 207.875 34.2429C208.636 34.1737 209.432 34.0699 210.262 33.9315C211.127 33.7931 211.889 33.6027 212.546 33.3605C213.238 33.0837 213.584 32.7377 213.584 32.3225C213.584 32.2533 213.221 32.0457 212.494 31.6996C211.802 31.319 210.747 30.6962 209.328 29.8311C208.221 29.1391 207.442 28.4471 206.993 27.755C206.543 27.0284 206.318 26.0595 206.318 24.8485C206.318 24.0872 206.474 23.4644 206.785 22.98C207.131 22.4955 207.581 22.1149 208.134 21.8381C208.723 21.5613 209.38 21.371 210.107 21.2672C210.868 21.1288 211.664 21.0596 212.494 21.0596C212.563 21.0596 212.771 21.0942 213.117 21.1634C213.498 21.2326 213.896 21.3537 214.311 21.5267C214.726 21.6651 215.089 21.8554 215.401 22.0976C215.747 22.3052 215.92 22.5474 215.92 22.8243C215.92 22.8935 215.851 22.9973 215.712 23.1357C215.608 23.2741 215.418 23.5336 215.141 23.9142C215.038 23.8796 214.847 23.8277 214.57 23.7585C214.328 23.6893 214.034 23.6201 213.688 23.5509C213.377 23.4471 213.048 23.3779 212.702 23.3433C212.356 23.2741 212.079 23.2395 211.871 23.2395C210.972 23.2395 210.245 23.4125 209.692 23.7585C209.138 24.0699 208.861 24.6928 208.861 25.627C208.861 26.0768 209.034 26.4921 209.38 26.8727C209.761 27.2533 210.228 27.6166 210.781 27.9626C211.335 28.2741 211.923 28.6028 212.546 28.9488C213.204 29.2602 213.809 29.6062 214.363 29.9868C214.916 30.3675 215.366 30.7827 215.712 31.2325C216.093 31.6477 216.283 32.1322 216.283 32.6858Z" fill="#2C0606"/>
<path d="M199.608 15.6617C199.608 15.7309 199.487 15.8693 199.245 16.0769C199.003 16.2845 198.709 16.5094 198.363 16.7516C198.051 16.9592 197.722 17.1496 197.376 17.3226C197.03 17.4956 196.754 17.5821 196.546 17.5821C196.408 17.5821 196.217 17.5821 195.975 17.5821C195.767 17.5475 195.542 17.4783 195.3 17.3745C195.093 17.2707 194.902 17.1323 194.729 16.9592C194.556 16.7516 194.47 16.4921 194.47 16.1807C194.47 15.6963 194.643 15.2465 194.989 14.8312C195.335 14.3814 195.785 14.1565 196.338 14.1565C196.442 14.1565 196.667 14.2084 197.013 14.3122C197.394 14.3814 197.774 14.4852 198.155 14.6236C198.536 14.762 198.864 14.9177 199.141 15.0907C199.453 15.2638 199.608 15.4541 199.608 15.6617ZM201.321 35.0733C201.321 35.3155 201.131 35.5231 200.75 35.6961C200.404 35.8692 200.145 35.9557 199.972 35.9557C199.626 35.9557 199.314 35.7308 199.037 35.2809C198.76 34.8311 198.518 34.3121 198.311 33.7238C198.103 33.1356 197.93 32.582 197.792 32.063C197.653 31.5093 197.549 31.1287 197.48 30.9211C197.376 30.5751 197.238 30.1599 197.065 29.6754C196.892 29.191 196.719 28.7239 196.546 28.2741C196.408 27.8242 196.286 27.4263 196.183 27.0803C196.079 26.7343 196.027 26.544 196.027 26.5094C196.027 26.0249 196.113 25.5751 196.286 25.1599C196.494 24.7447 196.736 24.5371 197.013 24.5371C197.325 24.5371 197.653 24.7793 197.999 25.2637C198.345 25.7481 198.674 26.371 198.985 27.1322C199.331 27.8588 199.643 28.672 199.92 29.5716C200.196 30.4367 200.439 31.2671 200.646 32.063C200.854 32.8242 201.01 33.4989 201.113 34.0872C201.252 34.6408 201.321 34.9695 201.321 35.0733Z" fill="#2C0606"/>
<path d="M192.643 34.7098C192.643 35.3672 192.436 35.817 192.02 36.0592C191.64 36.3015 191.225 36.4226 190.775 36.4226C189.979 36.4226 189.079 36.0765 188.076 35.3845C187.072 34.6579 186.017 33.8447 184.91 32.9451C184.875 33.0143 184.771 33.3949 184.598 34.0869C184.46 34.7444 184.252 35.471 183.976 36.2669C183.733 37.0627 183.422 37.7893 183.041 38.4468C182.661 39.1042 182.228 39.4329 181.744 39.4329C181.398 39.4329 181.121 39.3118 180.913 39.0696C180.706 38.7928 180.602 38.6025 180.602 38.4987C180.602 38.2565 180.723 37.8066 180.965 37.1492C181.207 36.4572 181.467 35.7305 181.744 34.9693C182.021 34.1734 182.28 33.4295 182.522 32.7375C182.764 32.0454 182.886 31.5437 182.886 31.2323C182.886 31.0939 182.609 30.6614 182.055 29.9347C181.502 29.2081 180.896 28.3603 180.239 27.3915C179.581 26.388 178.976 25.3327 178.422 24.2254C177.868 23.1182 177.591 22.0974 177.591 21.1631C177.591 20.9209 177.695 20.6787 177.903 20.4365C178.111 20.1943 178.301 20.0732 178.474 20.0732C178.681 20.0732 178.958 20.1597 179.304 20.3327C179.685 20.4711 179.91 20.6787 179.979 20.9555C180.325 22.0974 180.775 23.3258 181.328 24.6406C181.882 25.9209 182.713 27.1666 183.82 28.3776C183.924 27.997 184.045 27.478 184.183 26.8205C184.322 26.1631 184.477 25.4538 184.65 24.6925C184.823 23.9313 184.996 23.1701 185.169 22.4088C185.377 21.6476 185.567 20.9555 185.74 20.3327C185.948 19.7099 186.138 19.2081 186.311 18.8275C186.484 18.4469 186.657 18.2566 186.83 18.2566C187.003 18.2566 187.263 18.3258 187.609 18.4642C187.989 18.568 188.18 18.8102 188.18 19.1908C188.18 19.1908 188.128 19.485 188.024 20.0732C187.92 20.6268 187.782 21.3015 187.609 22.0974C187.436 22.8932 187.245 23.7583 187.038 24.6925C186.83 25.5922 186.623 26.4053 186.415 27.132C186.38 27.2358 186.311 27.4261 186.207 27.7029C186.138 27.9797 186.052 28.2738 185.948 28.5852C185.879 28.8967 185.809 29.1908 185.74 29.4676C185.671 29.7098 185.636 29.8655 185.636 29.9347C185.636 30.2461 185.879 30.6267 186.363 31.0766C186.882 31.4918 187.453 31.907 188.076 32.3222C188.699 32.7029 189.287 33.0316 189.841 33.3084C190.429 33.5852 190.792 33.7236 190.93 33.7236C191.034 33.7236 191.173 33.7063 191.346 33.6717C191.519 33.6371 191.657 33.6198 191.761 33.6198C192.038 33.6198 192.245 33.7755 192.384 34.0869C192.557 34.3984 192.643 34.606 192.643 34.7098Z" fill="#2C0606"/>
<path d="M173.821 34.0867C173.856 34.1559 173.873 34.2598 173.873 34.3982C173.873 34.6058 173.718 34.9172 173.406 35.3324C173.302 35.4708 173.078 35.6957 172.732 36.0072C172.386 36.3186 171.918 36.63 171.33 36.9414C170.742 37.2528 170.015 37.5296 169.15 37.7718C168.32 38.0141 167.334 38.1352 166.192 38.1352C165.396 38.1352 164.617 37.9622 163.856 37.6161C163.095 37.2355 162.42 36.6992 161.832 36.0072C161.244 35.2805 160.759 34.3982 160.379 33.3601C159.998 32.2874 159.808 31.0418 159.808 29.6231C159.808 28.2736 159.981 27.0107 160.327 25.8342C160.673 24.6577 161.105 23.6197 161.624 22.72C162.178 21.8204 162.784 21.111 163.441 20.592C164.098 20.073 164.739 19.8135 165.361 19.8135C165.915 19.8135 166.469 19.9346 167.022 20.1768C167.61 20.3844 168.129 20.6612 168.579 21.0072C169.064 21.3533 169.444 21.7512 169.721 22.201C169.998 22.6162 170.136 23.0488 170.136 23.4986C170.136 24.0176 169.894 24.5539 169.41 25.1076C168.96 25.6612 168.406 26.1802 167.749 26.6646C167.091 27.1145 166.434 27.4951 165.777 27.8065C165.119 28.0833 164.6 28.2217 164.219 28.2217C164.012 28.2217 163.822 28.1352 163.649 27.9622C163.51 27.7546 163.441 27.5124 163.441 27.2356C163.441 26.7511 163.649 26.3705 164.064 26.0937C164.514 25.8169 164.998 25.5747 165.517 25.3671C166.036 25.1249 166.503 24.848 166.918 24.5366C167.368 24.2252 167.593 23.7927 167.593 23.2391C167.593 23.1699 167.507 22.9969 167.334 22.72C167.161 22.4432 166.694 22.3048 165.932 22.3048C165.586 22.3048 165.188 22.5124 164.739 22.9276C164.289 23.3083 163.856 23.8446 163.441 24.5366C163.026 25.1941 162.68 25.9899 162.403 26.9242C162.126 27.8238 161.988 28.81 161.988 29.8826C161.988 30.7823 162.143 31.5954 162.455 32.3221C162.801 33.0487 163.233 33.6715 163.752 34.1906C164.271 34.675 164.877 35.0556 165.569 35.3324C166.261 35.6092 166.97 35.7476 167.697 35.7476C168.216 35.7476 168.77 35.6438 169.358 35.4362C169.981 35.194 170.552 34.9518 171.071 34.7096C171.624 34.4328 172.091 34.1905 172.472 33.9829C172.887 33.7407 173.147 33.6196 173.251 33.6196C173.354 33.6196 173.458 33.6715 173.562 33.7753C173.7 33.8791 173.787 33.9829 173.821 34.0867Z" fill="#2C0606"/>
<path d="M134.591 29.9348C134.764 30.1078 134.85 30.2116 134.85 30.2462C134.85 30.3154 134.747 30.5231 134.539 30.8691C134.366 31.2151 134.124 31.5784 133.812 31.959C133.501 32.3397 133.155 32.6857 132.774 32.9971C132.428 33.2739 132.082 33.4123 131.736 33.4123C131.01 33.4123 130.421 33.2739 129.972 32.9971C129.522 32.6857 129.141 32.3051 128.83 31.8552C128.553 31.4054 128.328 30.921 128.155 30.402C128.017 29.8483 127.896 29.3293 127.792 28.8449C127.722 28.6027 127.653 28.4816 127.584 28.4816C127.48 28.4816 127.273 28.8622 126.961 29.6234C126.65 30.3501 126.304 31.1632 125.923 32.0628C125.577 32.9279 125.231 33.741 124.885 34.5023C124.574 35.2289 124.366 35.5922 124.262 35.5922C123.639 35.5922 123.103 35.3327 122.653 34.8137C122.238 34.2601 121.892 33.6372 121.615 32.9452C121.373 32.2186 121.183 31.4919 121.044 30.7653C120.906 30.004 120.819 29.4158 120.785 29.0006C120.681 28.0663 120.456 26.5092 120.11 24.3293C119.764 22.1494 119.47 19.5024 119.228 16.3882C119.159 15.7308 119.072 15.1425 118.968 14.6235C118.899 14.0699 118.813 13.4644 118.709 12.8069C118.605 12.1495 118.518 11.4055 118.449 10.5751C118.38 9.74465 118.345 8.7239 118.345 7.51283C118.345 7.44363 118.363 7.21872 118.397 6.8381C118.432 6.45748 118.484 6.04226 118.553 5.59243C118.622 5.14261 118.726 4.74468 118.864 4.39866C119.037 4.05265 119.228 3.87964 119.435 3.87964C119.678 3.87964 119.902 4.03534 120.11 4.34676C120.318 4.62358 120.491 4.9523 120.629 5.33292C120.802 5.71354 120.923 6.07686 120.992 6.42288C121.062 6.7689 121.096 7.01111 121.096 7.14952C121.096 7.66854 121.062 8.15297 120.992 8.60279C120.923 9.05262 120.889 9.46784 120.889 9.84846C120.889 10.3675 120.923 11.0249 120.992 11.8208C121.096 12.6166 121.217 13.4297 121.356 14.2602C121.494 15.0906 121.615 15.9038 121.719 16.6996C121.823 17.4609 121.909 18.0837 121.979 18.5681C121.979 18.6027 122.013 18.8449 122.082 19.2948C122.152 19.7446 122.221 20.3155 122.29 21.0076C122.394 21.665 122.48 22.3916 122.55 23.1875C122.653 23.9487 122.757 24.71 122.861 25.4712C122.965 26.1978 123.051 26.8553 123.12 27.4435C123.224 27.9971 123.293 28.3951 123.328 28.6373C123.328 28.7411 123.345 28.8968 123.38 29.1044C123.449 29.2774 123.501 29.485 123.536 29.7272C123.605 29.9694 123.674 30.1943 123.743 30.402C123.812 30.6096 123.899 30.7653 124.003 30.8691C124.21 30.4539 124.47 29.8137 124.781 28.9487C125.127 28.0836 125.473 27.2013 125.819 26.3016C126.2 25.402 126.546 24.6234 126.857 23.966C127.203 23.274 127.498 22.928 127.74 22.928C128.017 22.928 128.242 22.9799 128.415 23.0837C128.588 23.1875 128.812 23.274 129.089 23.3432C129.435 23.4816 129.608 23.6719 129.608 23.9141C129.608 24.1217 129.643 24.3812 129.712 24.6927C129.781 25.1079 129.885 25.6615 130.024 26.3535C130.197 27.011 130.387 27.6684 130.594 28.3258C130.802 28.9487 131.044 29.485 131.321 29.9348C131.598 30.3847 131.875 30.6096 132.152 30.6096C132.29 30.6096 132.48 30.4366 132.722 30.0905C132.965 29.7099 133.293 29.5023 133.709 29.4677C133.778 29.4677 133.899 29.5196 134.072 29.6234C134.245 29.6926 134.418 29.7964 134.591 29.9348Z" fill="#2C0606"/>
<path d="M113.542 32.6858C113.542 33.274 113.334 33.793 112.919 34.2429C112.538 34.6581 112.037 35.0214 111.414 35.3328C110.826 35.6097 110.168 35.8346 109.442 36.0076C108.715 36.1806 108.023 36.319 107.365 36.4228C106.708 36.492 106.12 36.5439 105.601 36.5785C105.116 36.5785 104.805 36.5785 104.667 36.5785C103.905 36.5785 103.317 36.4574 102.902 36.2152C102.487 35.973 102.279 35.5404 102.279 34.9176C102.279 34.71 102.296 34.537 102.331 34.3986C102.365 34.2256 102.504 34.1391 102.746 34.1391C102.85 34.1391 103.023 34.1737 103.265 34.2429C103.507 34.2775 103.698 34.2948 103.836 34.2948C103.974 34.2948 104.407 34.2775 105.134 34.2429C105.895 34.1737 106.691 34.0699 107.521 33.9315C108.386 33.7931 109.147 33.6027 109.805 33.3605C110.497 33.0837 110.843 32.7377 110.843 32.3225C110.843 32.2533 110.48 32.0457 109.753 31.6996C109.061 31.319 108.006 30.6962 106.587 29.8311C105.48 29.1391 104.701 28.4471 104.251 27.755C103.801 27.0284 103.577 26.0595 103.577 24.8485C103.577 24.0872 103.732 23.4644 104.044 22.98C104.39 22.4955 104.84 22.1149 105.393 21.8381C105.981 21.5613 106.639 21.371 107.365 21.2672C108.127 21.1288 108.923 21.0596 109.753 21.0596C109.822 21.0596 110.03 21.0942 110.376 21.1634C110.756 21.2326 111.154 21.3537 111.57 21.5267C111.985 21.6651 112.348 21.8554 112.66 22.0976C113.006 22.3052 113.179 22.5474 113.179 22.8243C113.179 22.8935 113.109 22.9973 112.971 23.1357C112.867 23.2741 112.677 23.5336 112.4 23.9142C112.296 23.8796 112.106 23.8277 111.829 23.7585C111.587 23.6893 111.293 23.6201 110.947 23.5509C110.635 23.4471 110.307 23.3779 109.961 23.3433C109.615 23.2741 109.338 23.2395 109.13 23.2395C108.231 23.2395 107.504 23.4125 106.95 23.7585C106.397 24.0699 106.12 24.6928 106.12 25.627C106.12 26.0768 106.293 26.4921 106.639 26.8727C107.019 27.2533 107.487 27.6166 108.04 27.9626C108.594 28.2741 109.182 28.6028 109.805 28.9488C110.462 29.2602 111.068 29.6062 111.621 29.9868C112.175 30.3675 112.625 30.7827 112.971 31.2325C113.352 31.6477 113.542 32.1322 113.542 32.6858Z" fill="#2C0606"/>
<path d="M96.8671 15.6617C96.8671 15.7309 96.746 15.8693 96.5038 16.0769C96.2616 16.2845 95.9675 16.5094 95.6215 16.7516C95.3101 16.9592 94.9813 17.1496 94.6353 17.3226C94.2893 17.4956 94.0125 17.5821 93.8049 17.5821C93.6665 17.5821 93.4762 17.5821 93.2339 17.5821C93.0263 17.5475 92.8014 17.4783 92.5592 17.3745C92.3516 17.2707 92.1613 17.1323 91.9883 16.9592C91.8153 16.7516 91.7288 16.4921 91.7288 16.1807C91.7288 15.6963 91.9018 15.2465 92.2478 14.8312C92.5938 14.3814 93.0436 14.1565 93.5973 14.1565C93.7011 14.1565 93.926 14.2084 94.272 14.3122C94.6526 14.3814 95.0332 14.4852 95.4139 14.6236C95.7945 14.762 96.1232 14.9177 96.4 15.0907C96.7114 15.2638 96.8671 15.4541 96.8671 15.6617ZM98.5799 35.0733C98.5799 35.3155 98.3896 35.5231 98.009 35.6961C97.663 35.8692 97.4035 35.9557 97.2305 35.9557C96.8844 35.9557 96.573 35.7308 96.2962 35.2809C96.0194 34.8311 95.7772 34.3121 95.5696 33.7238C95.362 33.1356 95.1889 32.582 95.0505 32.063C94.9121 31.5093 94.8083 31.1287 94.7391 30.9211C94.6353 30.5751 94.4969 30.1599 94.3239 29.6754C94.1509 29.191 93.9779 28.7239 93.8049 28.2741C93.6665 27.8242 93.5454 27.4263 93.4416 27.0803C93.3377 26.7343 93.2858 26.544 93.2858 26.5094C93.2858 26.0249 93.3724 25.5751 93.5454 25.1599C93.753 24.7447 93.9952 24.5371 94.272 24.5371C94.5834 24.5371 94.9121 24.7793 95.2581 25.2637C95.6042 25.7481 95.9329 26.371 96.2443 27.1322C96.5903 27.8588 96.9017 28.672 97.1786 29.5716C97.4554 30.4367 97.6976 31.2671 97.9052 32.063C98.1128 32.8242 98.2685 33.4989 98.3723 34.0872C98.5107 34.6408 98.5799 34.9695 98.5799 35.0733Z" fill="#2C0606"/>
<path d="M89.4077 16.6993C89.5461 16.7339 89.6153 16.8377 89.6153 17.0107C89.6153 17.2529 89.4942 17.5124 89.252 17.7893C89.0098 18.0315 88.8887 18.3083 88.8887 18.6197C88.8887 18.6889 88.8714 18.9484 88.8368 19.3982C88.8368 19.8481 88.8368 20.3498 88.8368 20.9034C88.8368 21.4571 88.8195 21.9761 88.7849 22.4605C88.7849 22.9449 88.7849 23.2218 88.7849 23.291V28.4293C88.7849 28.4639 88.7676 28.7062 88.733 29.156C88.6984 29.6058 88.6292 30.1421 88.5254 30.765C88.4562 31.3878 88.3697 32.0452 88.2659 32.7373C88.1967 33.3947 88.1102 33.9656 88.0064 34.4501C87.9718 34.5885 87.868 34.6923 87.6949 34.7615C87.5565 34.8307 87.3835 34.8999 87.1759 34.9691C87.0029 35.0037 86.8299 35.0383 86.6569 35.0729C86.4839 35.0729 86.3801 35.0729 86.3455 35.0729C85.9649 35.0729 85.5496 34.848 85.0998 34.3982C84.6846 33.9483 84.2867 33.4466 83.906 32.893C83.5254 32.3393 83.1967 31.8203 82.9199 31.3359C82.6431 30.8515 82.4874 30.5746 82.4528 30.5054C82.3144 30.9899 82.1586 31.4916 81.9856 32.0106C81.8126 32.4951 81.6223 32.9449 81.4147 33.3601C81.2071 33.7753 80.9649 34.1213 80.6881 34.3982C80.4458 34.675 80.169 34.8134 79.8576 34.8134C79.4424 34.8134 79.0099 34.6058 78.56 34.1905C78.1102 33.7753 77.6431 33.239 77.1587 32.5816C76.7088 31.9241 76.2763 31.1975 75.8611 30.4016C75.4459 29.5712 75.0826 28.7753 74.7711 28.0141C74.4597 27.2529 74.2002 26.5435 73.9926 25.8861C73.8196 25.2287 73.7331 24.7096 73.7331 24.329C73.7331 24.1906 73.8023 24.0176 73.9407 23.81C74.0791 23.6024 74.2694 23.4986 74.5116 23.4986C74.9961 23.4986 75.3421 23.6543 75.5497 23.9657C75.5843 24.0003 75.6881 24.3117 75.8611 24.8999C76.0687 25.4882 76.3455 26.1802 76.6916 26.9761C77.0376 27.7719 77.4355 28.6023 77.8853 29.4674C78.3697 30.2978 78.9061 31.0072 79.4943 31.5954C79.7365 31.1456 79.9268 30.6439 80.0652 30.0902C80.2382 29.5366 80.3767 29.0003 80.4805 28.4812C80.5843 27.9622 80.6535 27.4951 80.6881 27.0799C80.7227 26.63 80.74 26.2667 80.74 25.9899C80.6708 25.7131 80.6189 25.4363 80.5843 25.1595C80.5497 24.9172 80.5151 24.675 80.4805 24.4328C80.4805 24.1906 80.4805 23.983 80.4805 23.81C80.4805 22.9449 80.8265 22.5124 81.5185 22.5124C82.0375 22.5124 82.4355 22.6854 82.7123 23.0314C82.9891 23.3429 83.1967 23.7235 83.3351 24.1733C83.4735 24.5885 83.56 25.0038 83.5946 25.419C83.6638 25.8342 83.733 26.1283 83.8022 26.3013C84.079 27.0972 84.3213 27.8411 84.5289 28.5331C84.7711 29.2252 85.169 29.9345 85.7226 30.6612C85.861 30.5573 85.9648 30.3843 86.0341 30.1421C86.1379 29.8653 86.2071 29.5885 86.2417 29.3117C86.2763 29.0349 86.2936 28.7927 86.2936 28.585C86.2936 28.3428 86.2936 28.1698 86.2936 28.066V17.7374C86.2936 17.5297 86.3801 17.3394 86.5531 17.1664C86.7261 16.9934 86.9337 16.8377 87.1759 16.6993C87.4181 16.5609 87.643 16.4571 87.8507 16.3879C88.0929 16.2841 88.2659 16.2322 88.3697 16.2322C88.5427 16.2322 88.6984 16.2841 88.8368 16.3879C89.0098 16.4917 89.2001 16.5955 89.4077 16.6993Z" fill="#2C0606"/>
<path d="M50.1585 30.921C50.1585 31.2324 49.9509 31.5611 49.5357 31.9071C49.1204 32.2532 48.636 32.5819 48.0824 32.8933C47.5288 33.1701 46.9578 33.4123 46.3696 33.6199C45.816 33.8275 45.4007 33.9314 45.1239 33.9314C44.8125 33.9314 44.4665 33.8448 44.0859 33.6718C43.7399 33.4988 43.3938 33.2912 43.0478 33.049C42.7364 32.8068 42.4596 32.5819 42.2174 32.3743C41.9752 32.1667 41.8195 32.0282 41.7503 31.959C41.6464 32.0628 41.4907 32.2705 41.2831 32.5819C41.0755 32.8933 40.816 33.2393 40.5046 33.6199C40.2278 33.966 39.9164 34.2774 39.5703 34.5542C39.2589 34.831 38.9302 34.9694 38.5842 34.9694C37.6845 34.9694 36.906 34.485 36.2486 33.5161C35.5911 32.5473 35.0375 31.44 34.5877 30.1944C34.1724 28.9487 33.8437 27.7549 33.6015 26.6131C33.3939 25.4366 33.2901 24.6408 33.2901 24.2255C33.2901 23.9833 33.4112 23.793 33.6534 23.6546C33.9302 23.4816 34.1378 23.3951 34.2763 23.3951C34.7607 23.3951 35.0894 23.5681 35.2624 23.9141C35.4354 24.2255 35.5219 24.5716 35.5219 24.9522C35.5219 25.2636 35.6084 25.8172 35.7814 26.6131C35.989 27.4089 36.2313 28.222 36.5081 29.0525C36.7849 29.8829 37.079 30.6269 37.3904 31.2843C37.7018 31.9071 37.9787 32.2186 38.2209 32.2186C38.6707 32.2186 39.0513 31.9417 39.3627 31.3881C39.7087 30.7999 39.9856 30.1424 40.1932 29.4158C40.4008 28.6546 40.5565 27.9452 40.6603 27.2878C40.7641 26.5958 40.816 26.1459 40.816 25.9383C40.816 25.9037 40.816 25.7999 40.816 25.6269C40.8506 25.4193 40.8852 25.2117 40.9198 25.0041C40.9544 24.7965 40.9717 24.6061 40.9717 24.4331C41.0063 24.2601 41.0236 24.139 41.0236 24.0698C41.0236 23.8276 40.9717 23.6719 40.8679 23.6027C40.7641 23.4989 40.7122 23.3086 40.7122 23.0318C40.7122 22.8242 40.816 22.6338 41.0236 22.4608C41.2312 22.2532 41.681 22.1494 42.3731 22.1494C42.6499 22.1494 42.8575 22.2359 42.9959 22.4089C43.1689 22.5473 43.29 22.7203 43.3592 22.928C43.4284 23.1356 43.463 23.3432 43.463 23.5508C43.4976 23.7238 43.5149 23.8449 43.5149 23.9141C43.5149 23.9487 43.4976 24.1909 43.463 24.6408C43.4284 25.0906 43.3938 25.5923 43.3592 26.1459C43.3592 26.665 43.3419 27.1667 43.3073 27.6511C43.2727 28.1355 43.2554 28.4297 43.2554 28.5335C43.2554 28.6373 43.3073 28.8449 43.4111 29.1563C43.5149 29.4677 43.6361 29.7964 43.7745 30.1424C43.9475 30.4539 44.1378 30.748 44.3454 31.0248C44.553 31.267 44.7779 31.3881 45.0201 31.3881C45.4353 31.3881 45.816 31.3362 46.162 31.2324C46.5426 31.094 46.8886 30.9556 47.2 30.8172C47.5461 30.6442 47.8575 30.5058 48.1343 30.402C48.4111 30.2636 48.6706 30.1944 48.9128 30.1944C49.2243 30.1944 49.5011 30.2636 49.7433 30.402C50.0201 30.5404 50.1585 30.7134 50.1585 30.921Z" fill="#2C0606"/>
<path d="M27.8262 28.3261C27.8262 29.0873 27.7224 29.814 27.5148 30.506C27.3072 31.1981 27.0304 31.8036 26.6844 32.3226C26.3383 32.8416 25.9231 33.2569 25.4387 33.5683C24.9889 33.8451 24.4871 33.9835 23.9335 33.9835C22.9647 33.9835 22.2034 33.7067 21.6498 33.1531C21.0962 32.5994 20.6636 31.9593 20.3522 31.2327C20.0754 30.506 19.8851 29.7794 19.7813 29.0527C19.7121 28.2915 19.6775 27.7206 19.6775 27.3399C19.6775 26.7171 19.764 26.0251 19.937 25.2638C20.1446 24.468 20.4041 23.7414 20.7155 23.0839C21.0616 22.4265 21.4422 21.8728 21.8574 21.423C22.2726 20.9732 22.7052 20.7483 23.155 20.7483C23.2588 20.7483 23.4145 20.7829 23.6221 20.8521C23.8643 20.9213 24.1065 21.0251 24.3487 21.1635C24.591 21.3019 24.7986 21.4749 24.9716 21.6825C25.1792 21.8902 25.3176 22.1324 25.3868 22.4092C25.7674 22.4438 26.148 22.5822 26.5287 22.8244C26.9093 23.0666 27.1169 23.2569 27.1515 23.3953C27.4283 24.295 27.6013 25.1946 27.6705 26.0943C27.7743 26.9939 27.8262 27.7379 27.8262 28.3261ZM25.4906 27.3918C25.4906 26.8728 25.4387 26.3365 25.3349 25.7829C25.2311 25.1946 25.0235 24.6064 24.7121 24.0182C24.6429 24.0528 24.5564 24.0701 24.4525 24.0701C24.3141 24.0701 24.193 24.0528 24.0892 24.0182C24.02 23.9836 23.9508 23.9663 23.8816 23.9663C23.4664 23.9663 23.1377 24.0874 22.8955 24.3296C22.6532 24.5372 22.4629 24.8313 22.3245 25.2119C22.2207 25.5579 22.1515 25.9386 22.1169 26.3538C22.0823 26.769 22.065 27.1669 22.065 27.5476C22.065 27.9282 22.0823 28.3607 22.1169 28.8451C22.1515 29.2949 22.2207 29.7275 22.3245 30.1427C22.4629 30.5579 22.6359 30.9212 22.8436 31.2327C23.0512 31.5095 23.328 31.6479 23.674 31.6479C24.02 31.6479 24.3141 31.4749 24.5564 31.1288C24.7986 30.7482 24.9889 30.3157 25.1273 29.8313C25.2657 29.3469 25.3522 28.8797 25.3868 28.4299C25.456 27.9455 25.4906 27.5995 25.4906 27.3918Z" fill="#2C0606"/>
<path d="M14.7346 15.2465C14.2848 17.6341 13.8696 19.9351 13.489 22.1496C13.3159 23.0839 13.1429 24.07 12.9699 25.1081C12.7969 26.1115 12.6239 27.115 12.4509 28.1184C12.3125 29.0873 12.1741 30.0215 12.0357 30.9212C11.9319 31.7862 11.8454 32.5821 11.7762 33.3087C11.6378 34.416 11.5339 35.6789 11.4647 37.0976C11.3955 38.5163 11.3263 39.8658 11.2571 41.146C11.1879 42.6339 11.1533 44.1391 11.1533 45.6616C11.1533 45.973 11.1187 46.319 11.0495 46.6996C10.9803 47.0802 10.9457 47.4609 10.9457 47.8415C10.9457 48.1875 10.8592 48.4816 10.6862 48.7238C10.5478 48.966 10.3229 49.0871 10.0115 49.0871C9.73465 49.0871 9.50974 48.8622 9.33673 48.4124C9.19832 47.9972 9.07722 47.4955 8.97341 46.9072C8.86961 46.3536 8.8004 45.7827 8.7658 45.1944C8.7312 44.6408 8.7139 44.2429 8.7139 44.0007C8.7139 43.7239 8.7139 43.3778 8.7139 42.9626C8.7139 42.582 8.7312 41.9938 8.7658 41.1979C8.835 40.4367 8.92151 39.4332 9.02532 38.1876C9.12912 36.9073 9.28483 35.2464 9.49244 33.2049C9.49244 33.1703 9.25023 32.9973 8.7658 32.6859C8.31598 32.3745 7.74505 31.9938 7.05301 31.544C6.39557 31.0596 5.70354 30.5406 4.9769 29.9869C4.28486 29.4333 3.69663 28.897 3.2122 28.3779C3.143 28.3087 3.03919 28.153 2.90079 27.9108C2.76238 27.6686 2.69318 27.3745 2.69318 27.0285C2.69318 26.8555 2.77968 26.6824 2.95269 26.5094C3.1257 26.3018 3.31601 26.198 3.52362 26.198C3.66203 26.198 3.80044 26.2672 3.93884 26.4056C4.73469 27.0977 5.65163 27.8762 6.68969 28.7413C7.72775 29.5717 8.7485 30.3329 9.75195 31.025C9.82116 30.4021 9.95957 29.4506 10.1672 28.1703C10.4094 26.8901 10.6516 25.5233 10.8938 24.07C11.136 22.5821 11.3609 21.1462 11.5686 19.7621C11.8108 18.378 11.9838 17.2707 12.0876 16.4403C12.0876 16.3019 12.1222 16.077 12.1914 15.7656C12.2606 15.4541 12.3644 15.1427 12.5028 14.8313C12.6412 14.5199 12.7969 14.2604 12.9699 14.0528C13.1429 13.8106 13.3332 13.6895 13.5409 13.6895C13.6447 13.6895 13.8696 13.7933 14.2156 14.0009C14.5616 14.1739 14.7346 14.5891 14.7346 15.2465Z" fill="#2C0606"/>
<path d="M230.627 76.5847C230.627 77.1729 230.419 77.692 230.004 78.1418C229.624 78.557 229.122 78.9203 228.499 79.2318C227.911 79.5086 227.253 79.7335 226.527 79.9065C225.8 80.0795 225.108 80.2179 224.451 80.3217C223.793 80.3909 223.205 80.4428 222.686 80.4774C222.201 80.4774 221.89 80.4774 221.752 80.4774C220.99 80.4774 220.402 80.3563 219.987 80.1141C219.572 79.8719 219.364 79.4394 219.364 78.8165C219.364 78.6089 219.381 78.4359 219.416 78.2975C219.451 78.1245 219.589 78.038 219.831 78.038C219.935 78.038 220.108 78.0726 220.35 78.1418C220.593 78.1764 220.783 78.1937 220.921 78.1937C221.06 78.1937 221.492 78.1764 222.219 78.1418C222.98 78.0726 223.776 77.9688 224.606 77.8304C225.471 77.692 226.233 77.5017 226.89 77.2595C227.582 76.9826 227.928 76.6366 227.928 76.2214C227.928 76.1522 227.565 75.9446 226.838 75.5986C226.146 75.2179 225.091 74.5951 223.672 73.7301C222.565 73.038 221.786 72.346 221.336 71.654C220.887 70.9273 220.662 69.9585 220.662 68.7474C220.662 67.9862 220.817 67.3633 221.129 66.8789C221.475 66.3945 221.925 66.0139 222.478 65.737C223.067 65.4602 223.724 65.2699 224.451 65.1661C225.212 65.0277 226.008 64.9585 226.838 64.9585C226.907 64.9585 227.115 64.9931 227.461 65.0623C227.842 65.1315 228.24 65.2526 228.655 65.4256C229.07 65.564 229.433 65.7543 229.745 65.9965C230.091 66.2042 230.264 66.4464 230.264 66.7232C230.264 66.7924 230.195 66.8962 230.056 67.0346C229.952 67.173 229.762 67.4325 229.485 67.8131C229.381 67.7785 229.191 67.7266 228.914 67.6574C228.672 67.5882 228.378 67.519 228.032 67.4498C227.72 67.346 227.392 67.2768 227.046 67.2422C226.7 67.173 226.423 67.1384 226.215 67.1384C225.316 67.1384 224.589 67.3114 224.035 67.6574C223.482 67.9689 223.205 68.5917 223.205 69.5259C223.205 69.9758 223.378 70.391 223.724 70.7716C224.105 71.1522 224.572 71.5155 225.125 71.8616C225.679 72.173 226.267 72.5017 226.89 72.8477C227.547 73.1591 228.153 73.5052 228.707 73.8858C229.26 74.2664 229.71 74.6816 230.056 75.1314C230.437 75.5467 230.627 76.0311 230.627 76.5847Z" fill="#2C0606"/>
<path d="M214.639 78.8681C214.639 79.2487 214.5 79.5082 214.223 79.6466C213.946 79.785 213.808 79.9754 213.808 80.2176C213.773 80.183 213.843 80.3733 214.016 80.7885C214.189 81.2037 214.344 81.6362 214.483 82.0861C214.725 83.0203 214.933 83.8335 215.106 84.5255C215.313 85.2175 215.469 85.8577 215.573 86.4459C215.711 87.0341 215.815 87.6224 215.884 88.2106C215.953 88.7988 215.988 89.4563 215.988 90.1829C215.988 90.9095 215.867 91.6535 215.625 92.4147C215.382 93.176 215.036 93.8507 214.587 94.4389C214.137 95.0272 213.583 95.5116 212.926 95.8922C212.268 96.2728 211.524 96.4631 210.694 96.4631C209.414 96.4631 208.393 96.2036 207.632 95.6846C206.905 95.1656 206.351 94.5773 205.971 93.9199C205.59 93.2625 205.348 92.605 205.244 91.9476C205.14 91.3248 205.088 90.9095 205.088 90.7019C205.088 89.4217 205.417 88.1414 206.075 86.8611C206.732 85.5809 207.459 84.4217 208.254 83.3836C209.05 82.3456 209.777 81.4805 210.434 80.7885C211.092 80.0965 211.421 79.6985 211.421 79.5947L210.85 77.8819C210.504 78.2972 210.192 78.7643 209.915 79.2833C209.673 79.7677 209.396 80.2349 209.085 80.6847C208.808 81.0999 208.462 81.4632 208.047 81.7746C207.666 82.0515 207.182 82.1899 206.594 82.1899C205.971 82.1899 205.348 81.9996 204.725 81.6189C204.102 81.2383 203.549 80.6674 203.064 79.9061C202.58 79.1449 202.182 78.228 201.87 77.1553C201.594 76.0826 201.455 74.837 201.455 73.4183C201.455 72.6225 201.576 71.6363 201.819 70.4598C202.061 69.2488 202.441 68.0896 202.96 66.9824C203.479 65.8751 204.12 64.9408 204.881 64.1796C205.677 63.3838 206.594 62.9858 207.632 62.9858C208.22 62.9858 208.756 63.0896 209.241 63.2973C209.76 63.5049 210.019 63.7644 210.019 64.0758C210.019 64.3526 209.967 64.5775 209.863 64.7505C209.76 64.9235 209.621 65.0966 209.448 65.2696C209.344 65.2004 209.223 65.1312 209.085 65.062C208.981 64.9927 208.825 64.9581 208.618 64.9581C207.857 64.9581 207.164 65.3042 206.542 65.9962C205.953 66.6536 205.452 67.4841 205.036 68.4875C204.621 69.4564 204.293 70.4771 204.05 71.5498C203.843 72.6225 203.739 73.5567 203.739 74.3525C203.739 76.1172 204.033 77.4667 204.621 78.401C205.209 79.3006 205.832 79.7504 206.49 79.7504C206.801 79.7504 207.13 79.5255 207.476 79.0757C207.857 78.5913 208.203 78.0722 208.514 77.5186C208.86 76.9304 209.154 76.3768 209.396 75.8577C209.639 75.3387 209.777 75.0273 209.812 74.9235C209.881 74.5775 209.915 74.1795 209.915 73.7297C209.915 73.3491 209.898 72.9339 209.863 72.484C209.863 71.9996 209.863 71.5152 209.863 71.0308C209.863 70.1311 209.933 69.3872 210.071 68.799C210.209 68.1761 210.555 67.8647 211.109 67.8647C211.663 67.8647 212.061 68.0377 212.303 68.3837C212.545 68.6951 212.666 69.0758 212.666 69.5256C212.666 69.837 212.649 70.2176 212.614 70.6675C212.614 71.0827 212.614 71.4979 212.614 71.9131C212.614 72.2937 212.597 72.6398 212.562 72.9512C212.562 73.228 212.562 73.401 212.562 73.4702C212.562 73.6778 212.58 73.9892 212.614 74.4045C212.684 74.7851 212.735 75.183 212.77 75.5982C212.839 75.9788 212.891 76.3422 212.926 76.6882C212.995 76.9996 213.047 77.2072 213.081 77.311C213.116 77.4148 213.168 77.5705 213.237 77.7781C213.306 77.9857 213.376 78.1415 213.445 78.2453C213.479 78.1761 213.549 78.1069 213.652 78.0376C213.756 77.9338 213.843 77.8473 213.912 77.7781C214.085 77.8819 214.241 78.0896 214.379 78.401C214.552 78.6778 214.639 78.8335 214.639 78.8681ZM212.874 85.4597C212.735 84.9061 212.58 84.3525 212.407 83.7989C212.234 83.2452 212.061 82.6743 211.888 82.0861C211.299 82.8127 210.728 83.5047 210.175 84.1622C209.656 84.8542 209.171 85.529 208.722 86.1864C208.306 86.8438 207.96 87.5186 207.684 88.2106C207.441 88.9372 207.32 89.6985 207.32 90.4943C207.32 91.567 207.614 92.4493 208.203 93.1414C208.825 93.8334 209.5 94.1794 210.227 94.1794C211.023 94.1794 211.767 93.8853 212.459 93.2971C213.185 92.7088 213.549 91.8611 213.549 90.7538C213.549 90.0272 213.531 89.4217 213.497 88.9372C213.462 88.4528 213.41 88.0203 213.341 87.6397C213.306 87.2936 213.237 86.9476 213.133 86.6016C213.064 86.2902 212.978 85.9096 212.874 85.4597Z" fill="#2C0606"/>
<path d="M199.09 77.0519C199.09 77.2595 199.021 77.4671 198.883 77.6747C198.744 77.8823 198.571 78.0726 198.364 78.2457C198.191 78.4187 197.983 78.5744 197.741 78.7128C197.533 78.8166 197.343 78.8685 197.17 78.8685C196.582 78.8685 195.82 78.7474 194.886 78.5052C193.987 78.2284 193.26 77.8131 192.706 77.2595C192.118 76.6713 191.599 75.9792 191.149 75.1834C190.699 74.3529 190.198 73.1419 189.644 71.5502C189.263 73.0727 188.814 74.5779 188.295 76.0657C187.81 77.5536 187.014 78.9204 185.907 80.1661C185.838 80.2353 185.734 80.2699 185.596 80.2699C185.353 80.2699 185.094 80.1488 184.817 79.9065C184.54 79.6643 184.402 79.4221 184.402 79.1799C184.402 78.9377 184.367 78.3841 184.298 77.519C184.263 76.6194 184.212 75.6332 184.142 74.5606C184.073 73.4533 184.004 72.346 183.935 71.2388C183.9 70.0969 183.883 69.1627 183.883 68.436C183.883 68.09 183.9 67.6402 183.935 67.0866C183.969 66.4983 184.073 65.9966 184.246 65.5814C184.281 65.5122 184.402 65.3738 184.609 65.1662C184.852 64.9585 185.111 64.8547 185.388 64.8547C185.63 64.8547 185.769 65.0104 185.803 65.3219C185.838 65.6333 185.855 65.9793 185.855 66.3599V74.5606C185.855 74.7336 185.872 74.9758 185.907 75.2872C185.976 75.5986 186.063 75.8235 186.167 75.9619C186.547 75.1315 186.893 74.1626 187.205 73.0554C187.551 71.9135 187.879 70.8409 188.191 69.8374C188.502 68.7993 188.814 67.9343 189.125 67.2423C189.436 66.5156 189.748 66.1523 190.059 66.1523C190.405 66.1523 190.682 66.2215 190.89 66.3599C191.097 66.4983 191.27 66.7751 191.409 67.1904C191.582 68.1938 191.72 69.0935 191.824 69.8893C191.928 70.6505 192.049 71.3426 192.187 71.9654C192.36 72.5882 192.585 73.1765 192.862 73.7301C193.173 74.2491 193.589 74.7336 194.108 75.1834C194.592 75.6332 195.128 75.9619 195.717 76.1695C196.339 76.3772 196.876 76.481 197.326 76.481C197.533 76.481 197.758 76.4464 198 76.3772C198.243 76.2733 198.416 76.2214 198.519 76.2214C198.658 76.2214 198.779 76.3426 198.883 76.5848C199.021 76.827 199.09 76.9827 199.09 77.0519Z" fill="#2C0606"/>
<path d="M178.523 59.5604C178.523 59.6296 178.402 59.768 178.159 59.9756C177.917 60.1832 177.623 60.4081 177.277 60.6503C176.966 60.8579 176.637 61.0482 176.291 61.2212C175.945 61.3943 175.668 61.4808 175.46 61.4808C175.322 61.4808 175.132 61.4808 174.89 61.4808C174.682 61.4462 174.457 61.377 174.215 61.2731C174.007 61.1693 173.817 61.0309 173.644 60.8579C173.471 60.6503 173.384 60.3908 173.384 60.0794C173.384 59.595 173.557 59.1451 173.903 58.7299C174.249 58.2801 174.699 58.0552 175.253 58.0552C175.357 58.0552 175.582 58.1071 175.928 58.2109C176.308 58.2801 176.689 58.3839 177.069 58.5223C177.45 58.6607 177.779 58.8164 178.056 58.9894C178.367 59.1624 178.523 59.3527 178.523 59.5604ZM180.235 78.972C180.235 79.2142 180.045 79.4218 179.665 79.5948C179.319 79.7678 179.059 79.8543 178.886 79.8543C178.54 79.8543 178.229 79.6294 177.952 79.1796C177.675 78.7298 177.433 78.2108 177.225 77.6225C177.018 77.0343 176.845 76.4807 176.706 75.9616C176.568 75.408 176.464 75.0274 176.395 74.8198C176.291 74.4738 176.152 74.0585 175.979 73.5741C175.806 73.0897 175.633 72.6226 175.46 72.1727C175.322 71.7229 175.201 71.325 175.097 70.979C174.993 70.633 174.941 70.4426 174.941 70.408C174.941 69.9236 175.028 69.4738 175.201 69.0586C175.409 68.6433 175.651 68.4357 175.928 68.4357C176.239 68.4357 176.568 68.6779 176.914 69.1624C177.26 69.6468 177.588 70.2696 177.9 71.0309C178.246 71.7575 178.557 72.5707 178.834 73.4703C179.111 74.3354 179.353 75.1658 179.561 75.9616C179.768 76.7229 179.924 77.3976 180.028 77.9858C180.166 78.5395 180.235 78.8682 180.235 78.972Z" fill="#2C0606"/>
<path d="M172.149 73.8338C172.322 74.0068 172.409 74.1106 172.409 74.1452C172.409 74.2144 172.305 74.422 172.098 74.768C171.925 75.114 171.682 75.4773 171.371 75.858C171.059 76.2386 170.713 76.5846 170.333 76.896C169.987 77.1728 169.641 77.3112 169.295 77.3112C168.568 77.3112 167.98 77.1728 167.53 76.896C167.08 76.5846 166.7 76.204 166.388 75.7542C166.111 75.3043 165.887 74.8199 165.713 74.3009C165.575 73.7473 165.454 73.2282 165.35 72.7438C165.281 72.5016 165.212 72.3805 165.143 72.3805C165.039 72.3805 164.831 72.7611 164.52 73.5223C164.208 74.249 163.862 75.0621 163.482 75.9618C163.136 76.8268 162.79 77.64 162.444 78.4012C162.132 79.1278 161.925 79.4912 161.821 79.4912C161.198 79.4912 160.662 79.2317 160.212 78.7126C159.797 78.159 159.451 77.5362 159.174 76.8441C158.932 76.1175 158.741 75.3908 158.603 74.6642C158.464 73.903 158.378 73.3147 158.343 72.8995C158.239 71.9653 158.015 70.4082 157.669 68.2283C157.323 66.0483 157.028 63.4013 156.786 60.2871C156.717 59.6297 156.63 59.0415 156.527 58.5224C156.457 57.9688 156.371 57.3633 156.267 56.7058C156.163 56.0484 156.077 55.3045 156.008 54.474C155.938 53.6436 155.904 52.6228 155.904 51.4118C155.904 51.3426 155.921 51.1176 155.956 50.737C155.99 50.3564 156.042 49.9412 156.111 49.4914C156.181 49.0415 156.284 48.6436 156.423 48.2976C156.596 47.9516 156.786 47.7786 156.994 47.7786C157.236 47.7786 157.461 47.9343 157.669 48.2457C157.876 48.5225 158.049 48.8512 158.188 49.2318C158.361 49.6125 158.482 49.9758 158.551 50.3218C158.62 50.6678 158.655 50.91 158.655 51.0484C158.655 51.5675 158.62 52.0519 158.551 52.5017C158.482 52.9515 158.447 53.3668 158.447 53.7474C158.447 54.2664 158.482 54.9238 158.551 55.7197C158.655 56.5155 158.776 57.3287 158.914 58.1591C159.053 58.9896 159.174 59.8027 159.278 60.5986C159.381 61.3598 159.468 61.9826 159.537 62.4671C159.537 62.5017 159.572 62.7439 159.641 63.1937C159.71 63.6435 159.779 64.2144 159.848 64.9065C159.952 65.5639 160.039 66.2906 160.108 67.0864C160.212 67.8476 160.316 68.6089 160.419 69.3701C160.523 70.0968 160.61 70.7542 160.679 71.3424C160.783 71.8961 160.852 72.294 160.887 72.5362C160.887 72.64 160.904 72.7957 160.938 73.0033C161.008 73.1763 161.06 73.3839 161.094 73.6262C161.163 73.8684 161.233 74.0933 161.302 74.3009C161.371 74.5085 161.457 74.6642 161.561 74.768C161.769 74.3528 162.028 73.7127 162.34 72.8476C162.686 71.9826 163.032 71.1002 163.378 70.2006C163.758 69.3009 164.105 68.5224 164.416 67.8649C164.762 67.1729 165.056 66.8269 165.298 66.8269C165.575 66.8269 165.8 66.8788 165.973 66.9826C166.146 67.0864 166.371 67.1729 166.648 67.2421C166.994 67.3805 167.167 67.5708 167.167 67.813C167.167 68.0207 167.201 68.2802 167.271 68.5916C167.34 69.0068 167.444 69.5604 167.582 70.2525C167.755 70.9099 167.945 71.5673 168.153 72.2248C168.361 72.8476 168.603 73.3839 168.88 73.8338C169.156 74.2836 169.433 74.5085 169.71 74.5085C169.848 74.5085 170.039 74.3355 170.281 73.9895C170.523 73.6089 170.852 73.4012 171.267 73.3666C171.336 73.3666 171.457 73.4185 171.63 73.5223C171.803 73.5916 171.976 73.6954 172.149 73.8338Z" fill="#2C0606"/>
<path d="M152.72 59.9759C152.271 60.4949 151.631 61.0139 150.8 61.533C149.97 62.0174 149.139 62.4672 148.309 62.8824C147.478 63.2977 146.752 63.661 146.129 63.9724C145.506 64.2492 145.195 64.4395 145.195 64.5433C145.195 64.6471 145.264 64.9585 145.402 65.4776C145.541 65.9966 145.696 66.6194 145.869 67.3461C146.077 68.0381 146.285 68.7647 146.492 69.526C146.7 70.2872 146.873 70.962 147.011 71.5502C147.08 71.8962 147.167 72.346 147.271 72.8997C147.375 73.4533 147.461 74.0069 147.53 74.5606C147.634 75.1142 147.721 75.6159 147.79 76.0657C147.859 76.481 147.894 76.7059 147.894 76.7405C147.894 77.2595 147.807 77.7958 147.634 78.3495C147.461 78.9031 147.184 79.1799 146.804 79.1799C146.596 79.1799 146.406 79.0934 146.233 78.9204C146.06 78.7474 145.904 78.5571 145.766 78.3495C145.627 78.1073 145.523 77.8823 145.454 77.6747C145.385 77.4671 145.35 77.3114 145.35 77.2076C145.35 77.1384 145.35 77.0346 145.35 76.8962C145.385 76.7578 145.402 76.6021 145.402 76.4291C145.402 75.7716 145.298 74.8201 145.091 73.5744C145.022 73.1938 144.883 72.6056 144.676 71.8097C144.468 71.0139 144.26 70.2007 144.053 69.3703C143.811 68.4014 143.534 67.3461 143.222 66.2042C143.084 65.7198 142.997 65.4776 142.963 65.4776C142.721 65.4776 142.305 65.6333 141.717 65.9447C141.163 66.2215 140.523 66.5848 139.797 67.0347C139.07 67.4499 138.309 67.917 137.513 68.436C136.717 68.9205 135.973 69.3876 135.281 69.8374C134.589 70.2526 134.001 70.6159 133.516 70.9274C132.997 71.2042 132.686 71.3426 132.582 71.3426C132.132 71.3426 131.769 71.1869 131.492 70.8755C131.215 70.564 131.077 70.218 131.077 69.8374C131.077 69.6298 131.371 69.3357 131.959 68.9551C132.513 68.5398 133.222 68.09 134.087 67.6056C134.918 67.1212 135.835 66.6194 136.838 66.1004C137.807 65.5814 138.707 65.1143 139.537 64.699C140.402 64.2838 141.112 63.9378 141.665 63.661C142.253 63.3842 142.548 63.2458 142.548 63.2458C142.236 61.6541 141.977 60.2354 141.769 58.9897C141.596 57.9171 141.423 56.9309 141.25 56.0313C141.112 55.1316 141.042 54.6472 141.042 54.578C141.042 54.1282 141.129 53.7994 141.302 53.5918C141.509 53.3496 141.734 53.2285 141.977 53.2285C142.357 53.2285 142.599 53.488 142.703 54.0071C143.084 55.8756 143.43 57.5364 143.741 58.9897C144.087 60.443 144.416 61.6195 144.727 62.5191C145.039 62.4499 145.575 62.2596 146.336 61.9482C147.098 61.6022 147.894 61.2388 148.724 60.8582C149.554 60.4776 150.298 60.1489 150.956 59.8721C151.648 59.5607 152.046 59.4049 152.15 59.4049C152.357 59.4049 152.478 59.4742 152.513 59.6126C152.582 59.751 152.651 59.8721 152.72 59.9759Z" fill="#2C0606"/>
<path d="M113.809 77.9857C113.844 78.0549 113.861 78.1587 113.861 78.2971C113.861 78.5047 113.705 78.8161 113.394 79.2313C113.29 79.3697 113.065 79.5947 112.719 79.9061C112.373 80.2175 111.906 80.5289 111.318 80.8403C110.729 81.1517 110.003 81.4286 109.138 81.6708C108.307 81.913 107.321 82.0341 106.179 82.0341C105.383 82.0341 104.605 81.8611 103.844 81.5151C103.082 81.1344 102.408 80.5981 101.819 79.9061C101.231 79.1794 100.747 78.2971 100.366 77.259C99.9856 76.1864 99.7953 74.9407 99.7953 73.522C99.7953 72.1726 99.9683 70.9096 100.314 69.7331C100.66 68.5567 101.093 67.5186 101.612 66.619C102.166 65.7193 102.771 65.01 103.428 64.4909C104.086 63.9719 104.726 63.7124 105.349 63.7124C105.903 63.7124 106.456 63.8335 107.01 64.0757C107.598 64.2833 108.117 64.5601 108.567 64.9062C109.051 65.2522 109.432 65.6501 109.709 66.0999C109.986 66.5152 110.124 66.9477 110.124 67.3975C110.124 67.9165 109.882 68.4529 109.397 69.0065C108.947 69.5601 108.394 70.0791 107.736 70.5636C107.079 71.0134 106.422 71.394 105.764 71.7054C105.107 71.9822 104.588 72.1207 104.207 72.1207C103.999 72.1207 103.809 72.0341 103.636 71.8611C103.498 71.6535 103.428 71.4113 103.428 71.1345C103.428 70.6501 103.636 70.2695 104.051 69.9926C104.501 69.7158 104.986 69.4736 105.505 69.266C106.024 69.0238 106.491 68.747 106.906 68.4356C107.356 68.1241 107.581 67.6916 107.581 67.138C107.581 67.0688 107.494 66.8958 107.321 66.619C107.148 66.3421 106.681 66.2037 105.92 66.2037C105.574 66.2037 105.176 66.4113 104.726 66.8266C104.276 67.2072 103.844 67.7435 103.428 68.4356C103.013 69.093 102.667 69.8888 102.39 70.8231C102.114 71.7227 101.975 72.7089 101.975 73.7815C101.975 74.6812 102.131 75.4943 102.442 76.221C102.788 76.9476 103.221 77.5704 103.74 78.0895C104.259 78.5739 104.864 78.9545 105.556 79.2313C106.249 79.5082 106.958 79.6466 107.685 79.6466C108.204 79.6466 108.757 79.5428 109.345 79.3351C109.968 79.0929 110.539 78.8507 111.058 78.6085C111.612 78.3317 112.079 78.0895 112.46 77.8819C112.875 77.6397 113.134 77.5185 113.238 77.5185C113.342 77.5185 113.446 77.5704 113.55 77.6743C113.688 77.7781 113.774 77.8819 113.809 77.9857Z" fill="#2C0606"/>
<path d="M96.56 59.9759C96.1101 60.4949 95.47 61.0139 94.6396 61.533C93.8091 62.0174 92.9787 62.4672 92.1482 62.8824C91.3178 63.2977 90.5911 63.661 89.9683 63.9724C89.3455 64.2492 89.0341 64.4395 89.0341 64.5433C89.0341 64.6471 89.1033 64.9585 89.2417 65.4776C89.3801 65.9966 89.5358 66.6194 89.7088 67.3461C89.9164 68.0381 90.124 68.7647 90.3316 69.526C90.5392 70.2872 90.7122 70.962 90.8507 71.5502C90.9199 71.8962 91.0064 72.346 91.1102 72.8997C91.214 73.4533 91.3005 74.0069 91.3697 74.5606C91.4735 75.1142 91.56 75.6159 91.6292 76.0657C91.6984 76.481 91.733 76.7059 91.733 76.7405C91.733 77.2595 91.6465 77.7958 91.4735 78.3495C91.3005 78.9031 91.0237 79.1799 90.6431 79.1799C90.4354 79.1799 90.2451 79.0934 90.0721 78.9204C89.8991 78.7474 89.7434 78.5571 89.605 78.3495C89.4666 78.1073 89.3628 77.8823 89.2936 77.6747C89.2244 77.4671 89.1898 77.3114 89.1898 77.2076C89.1898 77.1384 89.1898 77.0346 89.1898 76.8962C89.2244 76.7578 89.2417 76.6021 89.2417 76.4291C89.2417 75.7716 89.1379 74.8201 88.9303 73.5744C88.8611 73.1938 88.7226 72.6056 88.515 71.8097C88.3074 71.0139 88.0998 70.2007 87.8922 69.3703C87.65 68.4014 87.3732 67.3461 87.0618 66.2042C86.9234 65.7198 86.8368 65.4776 86.8022 65.4776C86.56 65.4776 86.1448 65.6333 85.5566 65.9447C85.0029 66.2215 84.3628 66.5848 83.6362 67.0347C82.9095 67.4499 82.1483 67.917 81.3524 68.436C80.5566 68.9205 79.8127 69.3876 79.1206 69.8374C78.4286 70.2526 77.8404 70.6159 77.3559 70.9274C76.8369 71.2042 76.5255 71.3426 76.4217 71.3426C75.9719 71.3426 75.6085 71.1869 75.3317 70.8755C75.0549 70.564 74.9165 70.218 74.9165 69.8374C74.9165 69.6298 75.2106 69.3357 75.7989 68.9551C76.3525 68.5398 77.0618 68.09 77.9269 67.6056C78.7573 67.1212 79.6743 66.6194 80.6777 66.1004C81.6466 65.5814 82.5462 65.1143 83.3767 64.699C84.2417 64.2838 84.951 63.9378 85.5047 63.661C86.0929 63.3842 86.387 63.2458 86.387 63.2458C86.0756 61.6541 85.8161 60.2354 85.6085 58.9897C85.4355 57.9171 85.2625 56.9309 85.0894 56.0313C84.951 55.1316 84.8818 54.6472 84.8818 54.578C84.8818 54.1282 84.9683 53.7994 85.1414 53.5918C85.349 53.3496 85.5739 53.2285 85.8161 53.2285C86.1967 53.2285 86.4389 53.488 86.5427 54.0071C86.9233 55.8756 87.2694 57.5364 87.5808 58.9897C87.9268 60.443 88.2555 61.6195 88.5669 62.5191C88.8783 62.4499 89.4147 62.2596 90.1759 61.9482C90.9372 61.6022 91.733 61.2388 92.5634 60.8582C93.3939 60.4776 94.1378 60.1489 94.7953 59.8721C95.4873 59.5607 95.8852 59.4049 95.989 59.4049C96.1966 59.4049 96.3178 59.4742 96.3524 59.6126C96.4216 59.751 96.4908 59.8721 96.56 59.9759Z" fill="#2C0606"/>
<path d="M82.167 72.6401C82.167 73.2629 81.8728 74.0415 81.2846 74.9757C80.731 75.8754 79.9697 76.7577 79.0009 77.6228C78.032 78.4878 76.9075 79.2318 75.6272 79.8546C74.3469 80.4428 73.0148 80.7369 71.6307 80.7369C71.0079 80.7369 70.3504 80.6331 69.6584 80.4255C68.9664 80.2179 68.2916 79.9238 67.6342 79.5432C66.9768 79.128 66.3885 78.6435 65.8695 78.0899C65.3505 77.5017 64.9698 76.8442 64.7276 76.1176C64.52 76.3252 64.2605 76.6712 63.9491 77.1556C63.6723 77.6401 63.3609 78.1418 63.0148 78.6608C62.6688 79.1453 62.2882 79.5778 61.873 79.9584C61.4578 80.3044 61.0252 80.4774 60.5754 80.4774C60.1256 80.4774 59.745 80.2525 59.4335 79.8027C59.1567 79.3183 58.9318 78.7992 58.7588 78.2456C58.5858 77.6574 58.4647 77.1037 58.3955 76.5847C58.3263 76.0657 58.2917 75.7716 58.2917 75.7024C58.2917 75.2871 58.4128 74.5086 58.655 73.3667C58.8972 72.1903 59.2605 70.9792 59.745 69.7336C60.2294 68.4879 60.8349 67.3806 61.5616 66.4118C62.3228 65.4429 63.2052 64.9585 64.2086 64.9585C64.5892 64.9585 64.8314 65.1315 64.9352 65.4775C65.0737 65.7889 65.1429 66.1004 65.1429 66.4118V67.9689C65.3159 68.1073 65.4889 68.2111 65.6619 68.2803C65.8695 68.3149 66.0425 68.3841 66.1809 68.4879C66.3539 68.5571 66.475 68.6782 66.5442 68.8512C66.648 69.0242 66.6999 69.301 66.6999 69.6816C66.6999 69.9239 66.6826 70.1488 66.648 70.3564C66.6134 70.5294 66.5961 70.7024 66.5961 70.8754C66.5961 71.7751 66.6653 72.6574 66.8037 73.5225C66.9421 74.3875 67.219 75.166 67.6342 75.8581C68.0494 76.5155 68.6203 77.0691 69.347 77.519C70.0736 77.9342 71.0425 78.1418 72.2535 78.1418C73.776 78.1418 75.0563 77.8304 76.0943 77.2076C77.167 76.5501 78.0493 75.8408 78.7414 75.0795C79.468 74.2837 80.0389 73.5744 80.4542 72.9515C80.8694 72.2941 81.2154 71.9654 81.4922 71.9654C81.9421 71.9654 82.167 72.1903 82.167 72.6401ZM63.9491 70.3564C63.9491 70.218 63.9145 70.0969 63.8453 69.9931C63.7761 69.8547 63.7415 69.7336 63.7415 69.6297C63.7415 69.4913 63.7761 69.3702 63.8453 69.2664C63.9145 69.1626 63.9491 69.0242 63.9491 68.8512C63.9491 68.7474 63.9145 68.6782 63.8453 68.6436C63.7761 68.5744 63.7415 68.5052 63.7415 68.436C63.4301 68.5052 63.1013 68.7993 62.7553 69.3183C62.4439 69.8374 62.1325 70.4429 61.8211 71.1349C61.5443 71.827 61.3194 72.5363 61.1463 73.2629C60.9733 73.955 60.8868 74.5259 60.8868 74.9757C60.8868 75.2179 60.956 75.6159 61.0944 76.1695C61.2328 76.7231 61.3886 77.0864 61.5616 77.2595C62.1498 76.0484 62.6861 74.8719 63.1705 73.7301C63.6896 72.5882 63.9491 71.4636 63.9491 70.3564Z" fill="#2C0606"/>
<path d="M53.8471 77.9857C53.8817 78.0549 53.899 78.1587 53.899 78.2971C53.899 78.5047 53.7433 78.8161 53.4318 79.2313C53.328 79.3697 53.1031 79.5947 52.7571 79.9061C52.4111 80.2175 51.944 80.5289 51.3557 80.8403C50.7675 81.1517 50.0409 81.4286 49.1758 81.6708C48.3454 81.913 47.3592 82.0341 46.2174 82.0341C45.4215 82.0341 44.643 81.8611 43.8817 81.5151C43.1205 81.1344 42.4458 80.5981 41.8575 79.9061C41.2693 79.1794 40.7849 78.2971 40.4042 77.259C40.0236 76.1864 39.8333 74.9407 39.8333 73.522C39.8333 72.1726 40.0063 70.9096 40.3523 69.7331C40.6984 68.5567 41.1309 67.5186 41.6499 66.619C42.2035 65.7193 42.8091 65.01 43.4665 64.4909C44.1239 63.9719 44.7641 63.7124 45.3869 63.7124C45.9405 63.7124 46.4942 63.8335 47.0478 64.0757C47.636 64.2833 48.1551 64.5601 48.6049 64.9062C49.0893 65.2522 49.4699 65.6501 49.7467 66.0999C50.0236 66.5152 50.162 66.9477 50.162 67.3975C50.162 67.9165 49.9198 68.4529 49.4353 69.0065C48.9855 69.5601 48.4319 70.0791 47.7744 70.5636C47.117 71.0134 46.4596 71.394 45.8021 71.7054C45.1447 71.9822 44.6257 72.1207 44.245 72.1207C44.0374 72.1207 43.8471 72.0341 43.6741 71.8611C43.5357 71.6535 43.4665 71.4113 43.4665 71.1345C43.4665 70.6501 43.6741 70.2695 44.0893 69.9926C44.5392 69.7158 45.0236 69.4736 45.5426 69.266C46.0616 69.0238 46.5288 68.747 46.944 68.4356C47.3938 68.1241 47.6187 67.6916 47.6187 67.138C47.6187 67.0688 47.5322 66.8958 47.3592 66.619C47.1862 66.3421 46.7191 66.2037 45.9578 66.2037C45.6118 66.2037 45.2139 66.4113 44.7641 66.8266C44.3143 67.2072 43.8817 67.7435 43.4665 68.4356C43.0513 69.093 42.7053 69.8888 42.4285 70.8231C42.1516 71.7227 42.0132 72.7089 42.0132 73.7815C42.0132 74.6812 42.1689 75.4943 42.4804 76.221C42.8264 76.9476 43.2589 77.5704 43.7779 78.0895C44.297 78.5739 44.9025 78.9545 45.5945 79.2313C46.2866 79.5082 46.9959 79.6466 47.7225 79.6466C48.2416 79.6466 48.7952 79.5428 49.3834 79.3351C50.0063 79.0929 50.5772 78.8507 51.0962 78.6085C51.6498 78.3317 52.117 78.0895 52.4976 77.8819C52.9128 77.6397 53.1723 77.5185 53.2761 77.5185C53.3799 77.5185 53.4837 77.5704 53.5876 77.6743C53.726 77.7781 53.8125 77.8819 53.8471 77.9857Z" fill="#2C0606"/>
<path d="M35.245 67.6054C35.245 67.8476 35.1412 68.0552 34.9336 68.2282C34.726 68.3666 34.4838 68.4877 34.207 68.5915C33.9302 68.6953 33.6534 68.7818 33.3765 68.851C33.0997 68.8856 32.8748 68.9029 32.7018 68.9029C32.1828 68.9029 31.8368 68.8683 31.6637 68.7991C31.4907 68.7299 31.3523 68.6953 31.2485 68.6953C30.3835 68.6953 29.6914 68.7645 29.1724 68.9029C28.6534 69.0414 28.2382 69.2663 27.9267 69.5777C27.6499 69.8891 27.4596 70.287 27.3558 70.7714C27.2866 71.2213 27.252 71.7749 27.252 72.4323C27.252 73.5396 27.2866 74.4219 27.3558 75.0794C27.4596 75.7368 27.5461 76.2731 27.6153 76.6884C27.7191 77.1036 27.8056 77.4323 27.8748 77.6745C27.9786 77.8821 28.0306 78.0897 28.0306 78.2974C28.0306 78.5742 27.8748 78.8683 27.5634 79.1797C27.2866 79.4911 27.0271 79.6468 26.7849 79.6468C26.3697 79.6468 25.989 79.2835 25.643 78.5569C25.3316 77.7956 25.0548 76.9133 24.8126 75.9098C24.605 74.8718 24.432 73.851 24.2935 72.8476C24.1551 71.8441 24.0859 71.0829 24.0859 70.5638C24.0859 69.9756 24.1378 69.422 24.2416 68.9029C24.3455 68.3493 24.4839 67.8822 24.6569 67.5016C24.8299 67.0864 25.0202 66.7576 25.2278 66.5154C25.4354 66.2732 25.643 66.1521 25.8506 66.1521C26.0236 66.1521 26.162 66.2213 26.2659 66.3597C26.3697 66.4635 26.4562 66.6019 26.5254 66.7749C26.5946 66.9133 26.6638 67.0517 26.733 67.1902C26.8368 67.294 26.9579 67.3459 27.0963 67.3459C27.4077 67.3459 27.9094 67.1902 28.6015 66.8787C29.2935 66.5673 30.1413 66.4116 31.1447 66.4116C32.079 66.4116 32.771 66.4462 33.2208 66.5154C33.7053 66.55 34.1724 66.6538 34.6222 66.8268C34.726 66.8614 34.8471 66.9479 34.9855 67.0863C35.1585 67.1902 35.245 67.3632 35.245 67.6054Z" fill="#2C0606"/>
<path d="M18.8353 73.9898C18.8353 74.3358 18.7834 74.6991 18.6796 75.0797C18.5758 75.4257 18.472 75.7199 18.3682 75.9621C18.299 76.0659 17.9702 76.4292 17.382 77.052C16.8284 77.6403 16.119 78.2631 15.254 78.9205C14.4235 79.578 13.472 80.1835 12.3993 80.7371C11.3613 81.2562 10.3578 81.5157 9.38897 81.5157C8.80074 81.5157 8.19521 81.4119 7.57237 81.2043C6.98414 80.9966 6.43051 80.6679 5.91148 80.2181C5.39246 79.7337 4.95993 79.1454 4.61391 78.4534C4.3025 77.7614 4.14679 76.9136 4.14679 75.9102C4.14679 74.2493 4.4236 72.7441 4.97723 71.3946C5.53086 70.0452 6.08449 68.9725 6.63812 68.1767C6.88034 67.796 7.19175 67.4154 7.57237 67.0348C7.9876 66.6196 8.38552 66.2563 8.76614 65.9448C9.14676 65.5988 9.49278 65.322 9.80419 65.1144C10.1502 64.9068 10.3924 64.803 10.5308 64.803C10.8422 64.803 11.1191 64.8895 11.3613 65.0625C11.6381 65.2355 11.7765 65.4085 11.7765 65.5815C11.7765 65.8583 11.69 66.1005 11.517 66.3082C11.3786 66.4812 11.171 66.6888 10.8942 66.931C10.6173 67.1386 10.2886 67.4327 9.908 67.8133C9.52738 68.1594 9.12946 68.6265 8.71423 69.2147C7.88379 70.3566 7.26096 71.533 6.84573 72.7441C6.46511 73.9206 6.2748 74.9586 6.2748 75.8583C6.2748 76.7579 6.60352 77.4846 7.26096 78.0382C7.95299 78.5572 8.66233 78.8167 9.38897 78.8167C10.7038 78.8167 11.863 78.5226 12.8665 77.9344C13.9045 77.3462 14.7869 76.6887 15.5135 75.9621C16.2401 75.2354 16.8284 74.578 17.2782 73.9898C17.728 73.4015 18.0567 73.1074 18.2643 73.1074C18.645 73.1074 18.8353 73.4015 18.8353 73.9898Z" fill="#2C0606"/>
</g>
</svg>