<svg width="106" height="93" viewBox="0 0 106 93" fill="none" xmlns="http://www.w3.org/2000/svg">
<path d="M54.3621 0C31.2183 0 12.4565 18.7617 12.4565 41.9055V51.0945C12.4565 57.102 13.7207 62.8143 15.9975 67.9799L0 92.8067L50.3092 92.8065C51.6429 92.9345 52.9948 93 54.3621 93H63.551C86.6948 93 105.457 74.2383 105.457 51.0945V41.9055C105.457 18.7618 86.6948 0 63.551 0H54.3621Z" fill="#37CF00"/>
<mask id="mask0_974_12897" style="mask-type:alpha" maskUnits="userSpaceOnUse" x="0" y="0" width="106" height="93">
<path d="M54.3621 0C31.2183 0 12.4565 18.7617 12.4565 41.9055V51.0945C12.4565 57.102 13.7207 62.8143 15.9975 67.9799L0 92.8067L50.3092 92.8065C51.6429 92.9345 52.9948 93 54.3621 93H63.551C86.6948 93 105.457 74.2383 105.457 51.0945V41.9055C105.457 18.7618 86.6948 0 63.551 0H54.3621Z" fill="#CF0018"/>
</mask>
<g mask="url(#mask0_974_12897)">
<path d="M178.601 49.4344C178.601 52.1055 177.339 55.4443 174.817 59.451C172.442 63.3093 169.178 67.0933 165.022 70.8032C160.867 74.5131 156.045 77.7036 150.554 80.3747C145.063 82.8974 139.35 84.1587 133.414 84.1587C130.743 84.1587 127.924 83.7135 124.956 82.8232C121.988 81.9328 119.094 80.6714 116.275 79.0391C113.455 77.2584 110.933 75.1808 108.707 72.8065C106.481 70.2838 104.848 67.4643 103.81 64.348C102.919 65.2384 101.806 66.7223 100.471 68.7999C99.2836 70.8774 97.9481 73.0291 96.4641 75.255C94.9802 77.3326 93.3479 79.1875 91.5671 80.8198C89.7864 82.3038 87.9314 83.0458 86.0023 83.0458C84.0732 83.0458 82.4408 82.0812 81.1053 80.1521C79.9181 78.0745 78.9536 75.8486 78.2116 73.4743C77.4696 70.9516 76.9502 68.5773 76.6534 66.3513C76.3567 64.1254 76.2083 62.8641 76.2083 62.5673C76.2083 60.7866 76.7276 57.4477 77.7664 52.5506C78.8052 47.5052 80.3633 42.3114 82.4408 36.9692C84.5184 31.627 87.1153 26.8784 90.2316 22.7233C93.4963 18.5682 97.2803 16.4907 101.584 16.4907C103.216 16.4907 104.255 17.2327 104.7 18.7166C105.294 20.0522 105.59 21.3877 105.59 22.7233V29.4011C106.332 29.9946 107.074 30.4398 107.816 30.7366C108.707 30.885 109.449 31.1818 110.042 31.627C110.784 31.9238 111.304 32.4432 111.6 33.1851C112.046 33.9271 112.268 35.1143 112.268 36.7466C112.268 37.7854 112.194 38.7499 112.046 39.6403C111.897 40.3823 111.823 41.1242 111.823 41.8662C111.823 45.7245 112.12 49.5085 112.713 53.2184C113.307 56.9283 114.494 60.2672 116.275 63.2351C118.056 66.0546 120.504 68.4289 123.62 70.358C126.737 72.1388 130.892 73.0291 136.086 73.0291C142.615 73.0291 148.105 71.6936 152.557 69.0225C157.158 66.203 160.942 63.1609 163.91 59.8962C167.026 56.4831 169.474 53.441 171.255 50.7699C173.036 47.9504 174.52 46.5406 175.707 46.5406C177.636 46.5406 178.601 47.5052 178.601 49.4344ZM100.471 39.6403C100.471 39.0467 100.322 38.5273 100.026 38.0822C99.7288 37.4886 99.5804 36.9692 99.5804 36.524C99.5804 35.9304 99.7288 35.411 100.026 34.9659C100.322 34.5207 100.471 33.9271 100.471 33.1851C100.471 32.7399 100.322 32.4432 100.026 32.2948C99.7288 31.998 99.5804 31.7012 99.5804 31.4044C98.2449 31.7012 96.8351 32.9625 95.3512 35.1885C94.0156 37.4144 92.6801 40.0113 91.3445 42.9792C90.1574 45.9471 89.1928 48.9892 88.4508 52.1055C87.7089 55.0734 87.3379 57.5219 87.3379 59.451C87.3379 60.4898 87.6347 62.1963 88.2282 64.5706C88.8218 66.9449 89.4896 68.5031 90.2316 69.2451C92.7543 64.0512 95.0544 59.0058 97.1319 54.1088C99.3578 49.2118 100.471 44.3889 100.471 39.6403Z" fill="#222222"/>
<path d="M57.1465 72.3606C57.2949 72.6573 57.3691 73.1025 57.3691 73.6961C57.3691 74.5865 56.7013 75.922 55.3658 77.7028C54.9206 78.2963 53.956 79.2609 52.4721 80.5965C50.9881 81.932 48.9848 83.2676 46.4621 84.6031C43.9394 85.9387 40.8231 87.1258 37.1132 88.1646C33.5517 89.2034 29.3225 89.7227 24.4255 89.7227C21.0124 89.7227 17.6735 88.9808 14.4088 87.4968C11.1441 85.8645 8.25044 83.5643 5.72773 80.5965C3.20502 77.4802 1.1275 73.6961 -0.504846 69.2443C-2.13719 64.644 -2.95337 59.3018 -2.95337 53.2176C-2.95337 47.4302 -2.21139 42.0138 -0.727441 36.9684C0.756507 31.923 2.61143 27.4711 4.83735 23.6129C7.21167 19.7546 9.80859 16.7125 12.6281 14.4866C15.4476 12.2607 18.1929 11.1477 20.864 11.1477C23.2383 11.1477 25.6126 11.6671 27.9869 12.7058C30.5097 13.5962 32.7356 14.7834 34.6647 16.2673C36.7422 17.7513 38.3746 19.4578 39.5617 21.3869C40.7489 23.1677 41.3425 25.0226 41.3425 26.9517C41.3425 29.1777 40.3037 31.4778 38.2262 33.8521C36.2971 36.2264 33.9227 38.4523 31.1032 40.5299C28.2837 42.459 25.4642 44.0913 22.6447 45.4269C19.8252 46.6141 17.5993 47.2076 15.967 47.2076C15.0766 47.2076 14.2604 46.8366 13.5185 46.0947C12.9249 45.2043 12.6281 44.1655 12.6281 42.9784C12.6281 40.9009 13.5185 39.2685 15.2992 38.0814C17.2283 36.8942 19.3059 35.8554 21.5318 34.9651C23.7577 33.9263 25.761 32.7391 27.5418 31.4036C29.4709 30.068 30.4355 28.2131 30.4355 25.8388C30.4355 25.542 30.0645 24.8 29.3225 23.6129C28.5805 22.4257 26.5772 21.8321 23.3125 21.8321C21.8286 21.8321 20.122 22.7225 18.1929 24.5032C16.2638 26.1356 14.4088 28.4357 12.6281 31.4036C10.8474 34.2231 9.3634 37.6362 8.17624 41.6428C6.98908 45.5011 6.3955 49.7303 6.3955 54.3306C6.3955 58.1888 7.06328 61.6761 8.39883 64.7924C9.88278 67.9087 11.7377 70.5798 13.9636 72.8057C16.1896 74.8833 18.7865 76.5156 21.7544 77.7028C24.7223 78.8899 27.7643 79.4835 30.8806 79.4835C33.1066 79.4835 35.4809 79.0383 38.0036 78.1479C40.6747 77.1092 43.1232 76.0704 45.3491 75.0317C47.7234 73.8445 49.7268 72.8057 51.3591 71.9154C53.1399 70.8766 54.2528 70.3572 54.698 70.3572C55.1432 70.3572 55.5884 70.5798 56.0335 71.025C56.6271 71.4702 56.9981 71.9154 57.1465 72.3606Z" fill="#222222"/>
</g>
</svg>
